<?xml version="1.0" standalone="no"?>
<!DOCTYPE svg PUBLIC "-//W3C//DTD SVG 20010904//EN"
 "http://www.w3.org/TR/2001/REC-SVG-20010904/DTD/svg10.dtd">
<svg version="1.0" xmlns="http://www.w3.org/2000/svg"
 width="48.000000pt" height="112.000000pt" viewBox="0 0 48.000000 112.000000"
 preserveAspectRatio="xMidYMid meet">

<g transform="translate(0.000000,112.000000) scale(0.100000,-0.100000)"
fill="#000000" stroke="none">
<path d="M90 925 l-34 -25 32 0 32 0 0 -411 0 -411 65 52 65 52 60 -52 60 -52
0 411 0 411 22 0 21 0 -23 25 c-23 24 -28 25 -145 25 -113 0 -123 -2 -155 -25z
m230 -126 c0 -34 -19 -59 -46 -59 -19 0 -26 6 -30 30 -5 21 -12 30 -25 30 -11
0 -19 5 -19 10 0 6 27 10 60 10 54 0 60 -2 60 -21z m-35 -89 c9 -15 -4 -47
-22 -54 -46 -18 -81 35 -43 66 22 18 50 13 65 -12z m3 -97 c0 -35 -14 -53 -43
-53 -27 0 -49 24 -41 45 4 10 -1 15 -14 15 -11 0 -20 5 -20 10 0 6 26 10 59
10 57 0 59 -1 59 -27z m2 -82 c0 -6 -15 -11 -32 -13 -43 -4 -42 -22 0 -26 46
-5 35 -27 -13 -27 -34 0 -39 3 -40 25 -1 14 0 31 2 38 6 14 83 17 83 3z m30
-91 c0 -6 -27 -10 -60 -10 -33 0 -60 4 -60 10 0 6 27 10 60 10 33 0 60 -4 60
-10z m-70 -45 c0 -8 5 -17 11 -21 8 -4 9 0 4 15 -3 12 -2 21 4 21 16 0 24 -40
10 -56 -7 -9 -25 -14 -42 -12 -24 2 -31 8 -32 28 -2 14 2 30 7 37 12 14 38 6
38 -12z m38 -100 c0 -28 -13 -33 -22 -10 -3 9 -18 15 -36 15 -16 0 -30 5 -30
10 0 6 20 10 44 10 40 0 44 -2 44 -25z"/>
<path d="M262 783 c5 -25 28 -28 28 -4 0 12 -6 21 -16 21 -9 0 -14 -7 -12 -17z"/>
<path d="M227 704 c-11 -11 3 -24 24 -24 12 0 19 5 17 13 -5 14 -31 21 -41 11z"/>
<path d="M227 614 c-14 -14 -6 -24 19 -24 16 0 24 5 22 13 -5 14 -31 21 -41
11z"/>
<path d="M220 380 c0 -5 5 -10 10 -10 6 0 10 5 10 10 0 6 -4 10 -10 10 -5 0
-10 -4 -10 -10z"/>
</g>
</svg>
